<?xml version="1.0" encoding="UTF-8"?>
<!DOCTYPE svg PUBLIC "-//W3C//DTD SVG 1.1//EN" "http://www.w3.org/Graphics/SVG/1.1/DTD/svg11.dtd">
<!-- Creator: CorelDRAW -->
<svg xmlns="http://www.w3.org/2000/svg" xml:space="preserve" width="215.9mm" height="279.4mm" version="1.1" style="shape-rendering:geometricPrecision; text-rendering:geometricPrecision; image-rendering:optimizeQuality; fill-rule:evenodd; clip-rule:evenodd"
viewBox="0 0 21590 27940"
 xmlns:xlink="http://www.w3.org/1999/xlink"
 xmlns:xodm="http://www.corel.com/coreldraw/odm/2003">
 <defs>
  <style type="text/css">
   <![CDATA[
    .fil0 {fill:white}
   ]]>
  </style>
 </defs>
 <g id="Capa_x0020_1">
  <metadata id="CorelCorpID_0Corel-Layer"/>
  <g id="_2365210431168">
   <path class="fil0" d="M3690.05 18137.5c59.42,-37.27 104.29,-93.92 153.22,-138.09l406.38 -313.35c28.34,-21.84 70.45,-39.39 92.85,-60.17 -73.91,-130.64 -753.95,-964.18 -902.88,-1155.04l-294.96 -390.84c-100.99,-134.81 -266.71,-320.86 -358.71,-445.62 -26.22,-35.55 -18.77,-43.94 -18.77,-99.77l308.43 -55.64c395.55,-65.21 722.03,-205.59 1074.46,-381.8l239.87 -124.21c24.29,-12.32 34.72,-19.48 54.02,-30.63 20.66,-11.94 39.02,-19.55 60.52,-32.62 40.58,-24.67 77.7,-41.63 119.58,-66.69l225.92 -138.14c193.04,-127.67 346.44,-223.54 538.25,-367.69 105.92,-79.6 370.35,-280.15 458.8,-362.47l143.46 -127.48c18.99,-15.9 28.33,-29.9 47.32,-45.8 82.53,-69.09 389.86,-350.13 419.9,-400.43 12.42,-69.22 20.47,-48.99 69.44,-83.81 22.2,-15.78 68.44,-51.61 80.44,-68.74 13.77,-93.18 3.1,-144.94 41.34,-173.86 92.37,-69.86 171.7,-82.68 174.12,-249.07 3.27,-225.01 -20.02,-172.87 -170.95,-244.61 -49.56,-23.55 -86.63,-43.95 -127.46,-75.72 -106.8,-83.1 -334.45,-319.42 -405.11,-432.8 -55.22,-88.59 -95.61,-174.43 -142.13,-273.23 -43.6,-92.57 -83.31,-196.28 -131.49,-282.9 -88.65,-159.37 -83.56,-103.35 -142.2,-171.54 -17.94,-20.86 -31.18,-38.95 -49.39,-52.14 2.86,34.81 8.46,46.25 8.46,93.35 -84,44.45 -1112.7,798.68 -1334.33,951.67 -133.64,92.25 -206,145.91 -345.73,230 -208.5,125.47 -424.57,232.61 -614.03,342.71 -241.3,140.22 -820.59,415.97 -1026.05,497.95 -194,77.4 -388.45,162.07 -608.4,162.07l684.09 -2914.25c26.29,-105.83 58.28,-195.79 76.84,-304.16 5.05,-29.48 8.8,-98.4 18.01,-116.98 -136.34,-8.73 -275.84,-59.78 -395.88,-95.78 -116.35,-34.88 -296.85,-58.7 -425.39,-67.79 -26.3,48.37 -45.97,240.48 -61.28,313.48l-516.22 2108.44c-94.17,399.63 -183.54,827.54 -281.03,1217.58 -13.19,52.76 -25.4,101.9 -37.23,149.03 -141.53,563.78 -59.51,562.95 322.69,1037.03 29.68,36.82 53.13,67.37 83.91,102.37 15.41,17.52 27.04,35.39 40.34,52.79l452.39 580.54c29.03,37.2 53.58,67.38 83.06,103.21 29.28,35.58 53.14,68.96 81.59,104.67 28.98,36.37 52.87,65.37 82.08,104.2 17.26,22.95 24.01,28.9 41.27,51.85l451.54 581.4c29.55,35.75 52.42,67.05 81.82,104.45 170.87,217.39 412.39,529.61 586.82,725.51 30.68,34.45 53.85,67.04 84.67,101.6 65.04,72.92 179.06,230.8 242.87,315.93l210.22 255.43c18.4,20.69 27.59,36.7 48.63,56.6z"/>
   <path class="fil0" d="M14321.61 4697.28c71.02,50.53 821.77,405.35 953.68,471.31 106.57,53.28 888.15,453.17 953.91,468.49 -22.57,96.84 -67.36,105.96 -169.28,177.86 -34.11,24.06 -68.88,47.42 -104.04,73.75 -217.13,162.65 -185.74,135.8 -380.73,330.47l-84.63 93.18c-27.37,27.52 -52.97,59.7 -77.81,91.52 -116.78,149.55 -193.83,244.93 -302.8,408.4l-209.98 323.42c-46.41,70.17 -83.81,144.47 -128.64,218.49l-418.91 825.7c-10.75,23.07 -14.17,36.46 -25.27,59.39 -12.72,26.29 -18.37,36.15 -29.5,63.63 -71.48,176.45 -139.42,308.34 -205.21,505.99 -22.41,67.34 -71.41,206.89 -72.97,282.6 -8.57,82.93 -37.13,122.49 -53.95,303.83 -19.85,214.02 -62.51,184.23 -83.55,269.92 -25.28,102.95 175.34,393.68 215.3,482.95 622.81,69.57 616.82,73.05 1081.92,459.26 56.98,47.33 208.22,211.43 235.54,283.07 49.06,-11.36 62.2,-30.86 103.31,-47.95 13.44,-22.69 17.24,-34.29 28.98,-62.62 11.86,-28.65 19.82,-41.5 31.47,-70.14l501.15 -1056.71c106.31,-214.34 396.46,-720.24 495.09,-876.52l306.44 -472.49c103.84,-155.84 213.56,-301.58 326.58,-452.36l348.58 -430.36c16.29,-18.26 26.06,-31.7 41.84,-51.28 17.7,-21.97 29.98,-35.34 46.19,-55.42l89.71 -105.02c56.56,-56.28 141.65,-150.5 239.3,-158.63l184.17 781.04c28.55,135.67 60.56,255.54 90.34,392.26 29.71,136.4 61.73,262.05 92.94,398.12 31.11,135.63 51.32,265.65 82.97,399.63 14.9,63.05 27.84,136.32 41.35,204.18 13.43,67.46 28.36,133.01 42.34,203.2 24.93,125.26 147.52,702.44 192.6,779.64 50.21,-23.51 162.04,-10.15 226.88,-20.53 77.08,-12.33 103.35,-51.54 171.46,-73.65 172.39,-55.95 258.84,27.77 381.92,-109.02l-9.09 -143.93c0.42,-36.3 -14.23,-98.29 -21.05,-139.09 -9,-53.82 -17.55,-98.79 -26.96,-142.38 -21.01,-97.4 -35.53,-183.17 -58.01,-280.66l-751.78 -3269.88c-58.85,-235.96 -111.62,-243.09 -337.72,-339.62 -145.22,-61.99 -733.57,-366.22 -892.2,-445.53 -112.22,-56.11 -347.28,-179.33 -447.98,-220.89 -76.06,-31.39 -152.34,-74.76 -226.52,-112.15l-2046.13 -978.28 -169.96 -25.51c-36.39,111.42 -259.77,502.17 -296.98,691.47 31.03,14.9 107.61,70.62 125.69,97.85z"/>
   <path class="fil0" d="M1691.91 10071.39c128.54,9.09 309.04,32.91 425.39,67.79 120.04,36 259.54,87.05 395.88,95.78l95.43 -421.51c8.53,-44.49 12.47,-109.91 22.04,-155.77 18.74,-89.82 52.83,-182.41 77.26,-269.87 92.84,-332.37 134.98,-480.68 206.72,-843.15 19.49,-98.53 39.07,-188.6 60.61,-286.52l62.87 -292.73c102.81,8.56 302.8,255.55 389.47,321.74 49.66,37.92 180.56,162.39 238.67,201.59l269.33 187.88c229.69,153.6 595.34,271.16 857.92,403.61 78.78,39.74 165.71,71.41 254.39,101.2 96.23,32.34 180.91,54.7 281.12,82.96 412.5,116.3 765.47,181.15 1158.41,280.92 102.95,26.14 510.15,138.25 615.34,71.1 39.78,-70.44 66.86,-93.52 157.57,-121.13 221.71,-67.47 307.08,58.23 422.65,107.74 107.5,46.05 132.63,10.31 215.92,-29.72 49.52,-45.83 95.11,-86.81 146.43,-131.55 97.63,-85.13 112.37,-68.03 90.35,-172.79 -105.97,-504.22 -93.48,-465.24 39.3,-941.93 49.86,-179 65.65,-101.17 77.81,-200.8 11.14,-91.19 2.77,-187.62 0.19,-279.35 -55.08,-27.56 -230.31,-51.34 -305.09,-66.84l-582.21 -162.85c-46.18,-12.89 -102.36,-19.56 -150.61,-35.66 -187.29,-62.5 -75.93,-44.61 -299.98,-72.56 -95.53,-11.91 -43.01,-32.22 -120.25,-66.01 -109.48,-47.9 -64.72,4.23 -274.56,-97.98 -203.35,-99.05 -612.87,-214.79 -806.82,-310.78l-248.13 -124.4c-247.23,-123.53 -223.95,-94.56 -489.94,-255.12l-682.89 -434.72c-139.21,-102.32 -128.96,-71.22 -187.59,-193.42l603.92 -285.08c35.67,-16.53 58.53,-24.75 93.17,-42.3 206.73,-104.78 479.59,-219.46 697.11,-327.36 60.09,-29.8 106.64,-62.13 163.61,-90.39l344.27 -163.73c30.06,-14.46 60.23,-26.9 87.74,-39.26 30.95,-13.91 65.33,-29.57 94.18,-41.29 157.63,-64.05 577.63,-257.54 684.61,-338.55 -54.82,-14.77 -52.61,-22.85 -78.52,-66.34 -19.36,-32.49 -34.74,-56.49 -52.44,-91.3 -32.85,-64.6 -60.86,-123.42 -92.4,-187.29 -32.19,-65.2 -60.1,-122.51 -91.57,-188.4l-66.46 -145.49c-16.1,-51.98 -6.09,-21.1 -4.02,-39.41 6.18,-54.58 132.56,-10.2 198.82,-121.27l-586.69 276.59c-42.9,21.63 -78.48,34.78 -121.38,56.41 -44.3,22.33 -76.72,36.78 -121.23,56.57l-595.56 284.98c-43.56,20.18 -76.14,33.71 -115.75,53.58 -39.98,20.06 -79.26,35.13 -121.42,56.38l-1188.09 564.52c-40.98,20.6 -74.97,32.98 -115.78,53.55l-837.09 399.05c-154.25,96.98 -233.88,234.95 -277.74,416.52 -36.69,151.85 -76.87,416.74 -112.24,590.5l-75.75 271.38c-102.48,364.19 -117.35,495.08 -195,863.33 -27.87,132.16 -43.09,154.23 -77.15,269.99 -111.73,379.73 -178,751.73 -255.89,1141.11 -40.8,203.98 -27.59,257.03 -107.48,417.45 -16.88,33.88 -33.61,99.15 -38.7,139.11l-33.18 229.3c-7.2,30.11 -16.17,42.83 -18.9,71.99z"/>
   <path class="fil0" d="M6686.93 3859.08c-66.26,111.07 -192.64,66.69 -198.82,121.27 -2.07,18.31 -12.08,-12.57 4.02,39.41l66.46 145.49c31.47,65.89 59.38,123.2 91.57,188.4 31.54,63.87 59.55,122.69 92.4,187.29 17.7,34.81 33.08,58.81 52.44,91.3 25.91,43.49 23.7,51.57 78.52,66.34l276.53 -114.24c46,-23.38 86.33,-38.81 132.69,-62.04 48.45,-24.28 90,-40.55 138.31,-64.9l798.8 -386.53c43.46,-21.41 83.59,-43.74 129.65,-65.08 27.39,-12.69 43.72,-17.39 70.7,-30.9l341.52 -158.02c58.98,-26.72 235.66,-100.38 296.2,-101.73l-65.42 620.38c-4.66,34.08 -4.78,105.91 -1.87,141.18 18.65,225.61 41.56,256.21 85.1,473.7 62.54,312.35 58.23,351.42 165.17,673.03 123.13,370.32 197.65,543.73 367.29,885.78l98.88 180.52c19.37,35.97 29.08,58.97 50.01,93.92 56.35,94.09 160.86,340.72 181.38,374.25 276.47,31.64 263.71,239.25 355.6,338.84 104.14,-45.54 260.27,-154.37 398.73,-82.4 112.05,58.24 147.86,211.87 165.44,375.74 41.28,384.84 -69.99,661.59 -108.41,973.92l29.49 -67.79c9.04,-25.37 16.11,-44.59 24.54,-68.6 59,-167.99 88.15,-250.76 186.75,-397.38 87.12,-129.55 251.87,-274.69 414.11,-356.24l259.21 -121.64c225.33,-108.58 368.19,-29.38 597.86,-173 45.88,-28.68 70.17,-47.54 125.84,-68.89 48.09,-18.43 101.22,-38.8 145.03,-53.24 -4.92,-90.06 -46.43,-117.21 -65.46,-194.54 -23.56,-81.26 -57.02,-162.79 -95.91,-239.95l-234.31 -451.5c-100.71,-201.41 -185.2,-372.63 -272.95,-582.18 -405.2,-967.65 -598.3,-1469.77 -750.19,-2526.42 -6.69,-46.58 -15.75,-97.81 -15.65,-153.7 0.05,-29.34 -3.55,-91.22 8.75,-118.65 11.99,-26.73 27.28,-42.69 74.95,-25.27l548.69 273.55c484.38,242.2 1013.84,483.38 1492.99,725.28 165.14,83.38 690.75,328.6 794.21,391.12 64.69,39.09 241.25,136.34 303.84,142.32 -18.08,-27.23 -94.66,-82.95 -125.69,-97.85 37.21,-189.3 260.59,-580.05 296.98,-691.47l169.96 25.51c-49.17,-63.28 -606.97,-310.15 -722.49,-367.91 -86.16,-43.08 -162.19,-81.09 -248.35,-124.17 -84.03,-42.02 -161.73,-76.63 -245.54,-118.54l-1233.42 -595.38c-170.73,-82.08 -326.03,-158.94 -493.78,-242.82 -164.68,-82.34 -323.14,-161.57 -485.42,-242.71 -98.51,-49.25 -427.68,-208.42 -517.31,-219.29 -184.58,-22.39 -431.91,113.93 -552.32,174.13 -166.14,83.07 -332.12,159.02 -496.58,240.02l-993.66 471.07c-42.87,20.58 -75.43,39.52 -118.38,59.42l-1244.63 592.65c-44.64,22.5 -82.32,36.77 -127.02,59.24 -166.35,83.63 -334.64,155.87 -497.03,239.9z"/>
   <path class="fil0" d="M10987.87 17431.16c55.3,-35.79 61.16,-28.15 115.48,11.97 177.23,130.89 264.92,216.84 411.17,333.9l1067.66 981.27c35.05,34.85 54.46,63.41 88.86,97.41 33.21,32.83 60.61,59.86 93.34,92.93 20.75,20.98 23.95,30.15 42.23,50.9 15.81,17.95 29.78,28.93 46.67,46.46l88.84 97.44c19.13,20.67 21.8,30.12 42.13,51l88.13 98.13c17.94,22.39 24.24,28.96 43.06,50.08l84.57 101.69c133.46,153.16 288.15,363.01 404.49,526.85 61,85.9 253.05,369.05 262.49,482.57 -234.24,0 -468.49,0 -702.73,0 -239.49,0 -458.33,-8.47 -702.73,-8.47 -237.07,0 -474.14,0 -711.21,0 -243.52,0 -458.92,-8.46 -702.73,-8.46 -237.07,0 -474.13,0 -711.2,0 -244.4,0 -463.25,-8.47 -702.73,-8.47l-1244.62 0.01c-103.19,0.34 -110.05,24.85 -110.05,-71.09l-30.71 4.61c34.03,123.8 75.82,104.24 250.84,101.61 300.81,-4.51 2419.77,-23.95 2497.67,32.71 51.38,71.03 39.92,265.42 36.17,363.95 -2.22,58.41 3.86,367.53 -1.7,382.63 -172.85,68.25 -1984.63,25.7 -2320.25,22.02 -394.7,-4.32 -790.79,-5.16 -1185.56,-5.83 -394.21,-0.67 -792.57,11.71 -1185.33,7.29 11.17,7.33 -1.05,3.3 18.72,6.9 294.76,53.8 3365.95,18.79 3748.95,18.79 617.51,0 1269.73,16.93 1888.07,16.93 62.05,0 602.45,5.25 1196.82,8.47l1323.29 0c166.42,-1.98 283.94,-5.29 322.7,-10.46 153.56,-20.47 265.02,-134.84 350.22,-242.44l2709.24 -3387.77c-12.63,-102.88 -44.53,-141.63 -102.96,-194.03 -51.16,-45.88 -461.79,-353.97 -507.64,-374.85 -66.98,24.17 -338.81,393.68 -420.66,495.35l-966.68 1209.25c-55.4,68.43 -229.5,279.24 -289.06,295.15 -44.02,-83.19 -92.35,-261.73 -166.5,-409.23l-132.71 -248.3c-13.3,-24.57 -21.66,-34.05 -35.88,-57.25 -84.1,-137.25 -258.84,-384.04 -365.76,-506.31l-181.95 -207.51c-20.26,-20.86 -22.97,-30.4 -42.08,-51.06l-338.67 -338.67c-20.59,-19.04 -30.2,-21.9 -51.07,-42.06 -135.42,-130.77 -429.38,-374.83 -573.36,-484.97 -73.7,-56.39 -146.33,-109.91 -222.55,-166.92 -115.89,-86.69 -333.52,-218.79 -459.77,-310.7 -76.1,-55.4 -148.73,-104.73 -223.65,-157.35 -53.85,-37.82 -178.26,-127.79 -211.72,-177.74 -90.04,34.78 -127.91,84.31 -232.04,20.3 -53.99,-33.2 -126.1,-97.89 -174.98,-136.43 -176.26,-20.66 -224.63,-19.93 -228.18,107.29 -3.19,114.43 12.55,235.8 -10.69,345.16 -36.76,172.93 -129.15,342.51 -228.61,473.92 -87.73,115.92 -469.08,384.68 -592.84,474.15 -86.3,62.39 -113.37,79.11 -150.25,197.28z"/>
   <path class="fil0" d="M18700.04 10209.08c4.54,69.38 18.9,125.44 31.77,189.8 67.41,337.05 165.67,798.2 247.42,1124.17 15.81,63.03 27.52,128.22 42.25,186.35 58.86,232.31 115.27,516.38 176.54,738.46 20.68,74.99 7.33,80.14 -120.54,43.75l-171.78 -56.82c-112.58,-33.06 -252.88,-53.34 -385.52,-71.69 -675.94,-93.48 -1439.93,-2.75 -2058.99,152.31l-722.05 192.36c-52.78,15.66 -129.4,35.62 -180.89,47.7 -69.15,16.24 -120.65,27.48 -203.46,27.48 -41.24,85.22 -81.71,173.13 -207.94,167.12 -67.2,-3.2 -109.1,-8.86 -171.74,9.71 -70.6,20.94 -61.97,33.16 -76.97,109.01 -29.32,148.21 4.27,194.5 -123.35,258.08 -93.31,46.48 -220.36,38.39 -333.31,38.72 -65.7,124.37 -8.01,148.2 54.43,227.72 369.22,470.22 186.29,921.7 173.06,1467.18 -3.5,144.12 9.63,356.33 -29.38,493.14 -14.08,49.36 -33.71,84.6 -47.18,133.39 62.84,-34.84 96.31,-153.2 104.38,-228.54 4.89,-45.72 9.06,-113.22 14.45,-154.88 7.15,-55.34 10.89,-101.05 10.89,-158.45 794.24,-185.03 1236.91,-300.49 2092.73,-421.87 227.6,-32.28 466.15,-50.31 702.51,-76.42 25.16,-2.78 50.01,0.02 74.98,-1.22 37.44,-1.87 35.17,-7.71 75.96,-8.71l311.18 -10.56c85.45,-11.71 207.27,-6.03 307.11,-6.15 60.25,-0.08 96.41,5.94 143.89,8.51 52.04,2.81 108.92,-2.89 160.95,-0.08 89.93,4.85 197.92,20.19 288.08,25.19 102.16,5.66 193.26,26.26 287.61,34.11 -16.16,69.4 -165.34,254.4 -214.07,319.32 -201.83,268.92 -442.42,555.54 -656.88,824.8l-300.11 368.75c-102.89,127.7 -681.88,816.54 -708.54,906.99 45.85,20.88 456.48,328.97 507.64,374.85 58.43,52.4 90.33,91.15 102.96,194.03 52.49,-38.05 121.28,-126.32 163.58,-182.56l472.61 -594.19c29.36,-32.91 51.65,-63.19 79.82,-97.98 28.29,-34.94 52.76,-65.51 78.86,-98.94l158.92 -196.68c108.41,-132.51 210.09,-259.62 317.88,-393.32 106.6,-132.22 205.52,-259.04 312.55,-390.19l567.21 -677.39c28.95,-33.23 52.88,-62.69 80.83,-96.97 341.61,-418.87 368.34,-541.09 269.35,-1035.92 -40.13,-200.62 -85.57,-390.06 -130.26,-580.95 -152.74,-652.41 -309.32,-1371.72 -453.98,-2035.21 -64.09,-293.94 -157.3,-599.84 -208.98,-857.83 -19.38,-96.76 -31.63,-211.23 -47.41,-308.18 -9.09,-55.84 -16.88,-95.27 -31.38,-146.42 -13.18,-46.46 -20.12,-72.64 -45.05,-107.5 -10.73,-14.98 -2.45,-4.82 -11.47,-14.51l9.09 143.93c-123.08,136.79 -209.53,53.07 -381.92,109.02 -68.11,22.11 -94.38,61.32 -171.46,73.65 -64.84,10.38 -176.67,-2.98 -226.88,20.53z"/>
   <path class="fil0" d="M6814.25 16030.46l-32.63 529.87c-9.05,80.62 -5.96,430.49 -21.73,537.06 -19.97,134.89 -31.93,359.76 -52.08,506.73l-63.33 503.93c-48.33,353.79 -285.78,1390.37 -482.16,1761.51 -73.97,-49.53 -182.69,-189.78 -243.59,-264.41l-390.25 -498.76c-18.9,-25.26 -34.03,-47.21 -54.6,-72.4 -178.58,-218.69 -376.53,-487.97 -558.8,-711.2 -40.34,-49.41 -71.38,-92.21 -111,-142.99 -76.24,-97.71 -151.14,-186.46 -224.94,-283.07 -16.21,-21.22 -37.73,-49.92 -57.14,-69.85 -38.36,-39.37 -150.32,-178.68 -179.5,-200.99 -22.4,20.78 -64.51,38.33 -92.85,60.17l-406.38 313.35c-48.93,44.17 -93.8,100.82 -153.22,138.09 270.36,381.7 564.54,747.25 856.24,1112.88l1045.1 1317.1c99.04,126.02 371.61,490.48 483.95,599.79 53.53,52.08 160.08,100.4 264.78,99 392.76,4.42 791.12,-7.96 1185.33,-7.29 394.77,0.67 790.86,1.51 1185.56,5.83 335.62,3.68 2147.4,46.23 2320.25,-22.02 5.56,-15.1 -0.52,-324.22 1.7,-382.63 3.75,-98.53 15.21,-292.92 -36.17,-363.95 -77.9,-56.66 -2196.86,-37.22 -2497.67,-32.71 -175.02,2.63 -216.81,22.19 -250.84,-101.61l30.71 -4.61 101.49 -183.02c16.5,-31.87 33.95,-58.91 50.91,-93.03 125.32,-252 224.14,-414.61 294.25,-713.28 19.25,-81.99 29.52,-157.4 46.5,-241.37l69.16 -362.64c60.74,-300.51 81.15,-870.32 81.15,-1214.25 0.01,-190.66 -14.19,-364.34 -16.59,-559.14 -0.63,-50.54 -9.17,-75.69 -8.86,-135.07l0.05 -432.74c-54.95,-34.57 -136.55,-133.84 -143.56,-236.23 -8.36,-122.15 7.34,-118.58 37.37,-148.68 32.35,-32.45 42.1,-96.39 36.32,-149.99 -1.02,-70.52 -8.93,13.53 -11,-45.31 -2,-57.22 33.51,-157.62 -50.35,-193.32 -100.65,-42.85 -111.72,10.33 -244.78,68.25 -276.13,120.21 -217.97,112.74 -572.26,110.16 -125.33,-0.92 -187.19,-18.95 -292.15,-51.78 -85.43,-26.72 -187.99,-36.33 -260.54,-78.15 -238.72,-137.62 -271.53,-128.84 -541.54,-138.09 -5.1,69.95 -22.78,438.56 -40.31,470.86z"/>
   <path class="fil0" d="M13926.32 9269.28c-0.5,65.65 -28.86,234.38 -46.13,292.67 -72.54,244.83 -343.24,358.54 -566.01,441.63 -265.84,99.15 -783.58,221.45 -1099.85,240.42l8.44 75.15c104.96,131.34 162.9,208.46 283.21,328.07 27.34,27.18 35.19,38.12 59.64,67.37 35.52,42.49 86.14,86.9 126.62,127.38l203.78 228.02c65.24,79.79 55.23,120.12 39.64,256.69 -16.95,148.5 -18.77,302.27 24.29,441.38 71.63,231.39 79.79,188.74 150.9,340.17 28.92,61.59 43.05,132.09 29.32,210.35 -47.54,270.89 -93.17,465.26 -133.03,739.06 -6.39,43.9 -12.21,68.22 -12.21,114.78 -67.9,32.58 -118.08,20.7 -160.87,84.68l190.17 -48.88 145.04 -856.45c50.13,5.34 98.09,70.26 157.77,124.46 295.9,268.74 579.69,584.14 934.13,784.63 36.11,20.42 157.94,84.1 180.31,104.73 112.95,-0.33 240,7.76 333.31,-38.72 127.62,-63.58 94.03,-109.87 123.35,-258.08 15,-75.85 6.37,-88.07 76.97,-109.01 62.64,-18.57 104.54,-12.91 171.74,-9.71 126.23,6.01 166.7,-81.9 207.94,-167.12 4.25,-48.62 -23.06,-288.66 -23.06,-338.67 385.29,-32.06 523.62,-44.02 424.36,-382.03 -20.36,-69.33 -48.71,-159.66 -77.23,-219.1 68.6,-15.98 223.23,-96.4 263.99,-150.88 70.24,-93.85 43.5,-234.01 -4.23,-329.01 -74.29,-147.85 -250.62,-369.5 -420.62,-409.11l0 -111.59c-41.11,17.09 -54.25,36.59 -103.31,47.95 -27.32,-71.64 -178.56,-235.74 -235.54,-283.07 -465.1,-386.21 -459.11,-389.69 -1081.92,-459.26 -39.96,-89.27 -240.58,-380 -215.3,-482.95 21.04,-85.69 63.7,-55.9 83.55,-269.92 16.82,-181.34 45.38,-220.9 53.95,-303.83 -56.32,64.57 -64.96,124.19 -93.11,177.8z"/>
   <path class="fil0" d="M8252.98 7846.88c2.58,91.73 10.95,188.16 -0.19,279.35 -12.16,99.63 -27.95,21.8 -77.81,200.8 -132.78,476.69 -145.27,437.71 -39.3,941.93 22.02,104.76 7.28,87.66 -90.35,172.79 -51.32,44.74 -96.91,85.72 -146.43,131.55 -18.84,53.08 -46.06,65.82 -96.94,84.95 12.41,122.16 136.39,260.99 190.81,345.94 61.02,95.24 125.6,245.32 180,353.02 224.96,445.34 160.25,286.52 291.4,775.39 116.97,-9.33 128.96,-74.6 184.95,-147.03 50.71,-65.61 101.28,-120.2 143.08,-195.75 28.09,-50.76 115.27,-152.45 151.22,-187.36 63.61,-61.77 91.3,-118.36 165.3,-176.81 19.28,-20.94 20.73,-30.02 33.81,-55.73 12.5,-24.6 22.84,-38.35 38.97,-62.66 232.67,-350.54 521.59,-156.55 845.23,-348.57 46.22,-27.42 86.03,-47.2 131.95,-71.34 45.45,-83.57 292.35,-390.39 358.88,-504.79 177.21,-304.76 102.44,-291.36 183.14,-460.11 24.85,-51.98 31.57,-99.98 49.12,-158.45 38.42,-312.33 149.69,-589.08 108.41,-973.92 -17.58,-163.87 -53.39,-317.5 -165.44,-375.74 -138.46,-71.97 -294.59,36.86 -398.73,82.4 -91.89,-99.59 -79.13,-307.2 -355.6,-338.84 -84.63,34.94 -170.62,87.31 -227.1,157.08 -22.99,28.41 -45.98,32.51 -77.7,49.3 -9.33,-40.03 -101.48,-204.64 -155.94,-242 -137.66,-94.43 -304.54,-45.15 -394.54,80.99 -39.99,56.04 -89.01,149.72 -143.79,186.41 -37.45,-10 -161.52,-130.34 -208.42,-155.66 -49.49,-26.71 -110.16,-16.28 -153.19,5.71 -193.51,98.91 -319.43,414.09 -324.8,607.15z"/>
   <path class="fil0" d="M6607.59 13248.47c-12,17.13 -58.24,52.96 -80.44,68.74 -48.97,34.82 -57.02,14.59 -69.44,83.81 57.85,-28.71 112.38,-97.49 161.81,-101.6 7.4,27.73 96.72,153.7 118.53,186.27 -30.7,16.24 -62.16,32.33 -95.85,48.08 -100.37,46.91 -200.54,47.68 -253.82,186.44 -58.6,152.64 15.3,225.19 81.24,313.31 29.99,40.09 54.15,64.22 56.76,95.63l-206.93 106.34c-59.56,40.16 -103.04,125.14 -94.45,220.36 17.88,198.25 122.69,209.41 267.52,376.04 -6.46,9.63 -9.7,15.73 -17.64,24.69l-69.08 57.92c-27.58,24.3 -64.31,62.1 -79.53,98.27 -69.92,166.25 88.57,360.27 236.71,434.45 36.46,18.26 223.88,92.88 259.74,95.87l0.28 372.81c-1.33,44.46 -8.75,61.22 -8.75,114.56 17.53,-32.3 35.21,-400.91 40.31,-470.86 270.01,9.25 302.82,0.47 541.54,138.09 72.55,41.82 175.11,51.43 260.54,78.15 104.96,32.83 166.82,50.86 292.15,51.78 354.29,2.58 296.13,10.05 572.26,-110.16 133.06,-57.92 144.13,-111.1 244.78,-68.25 83.86,35.7 48.35,136.1 50.35,193.32 2.07,58.84 9.98,-25.21 11,45.31l27.59 -23.31c1.67,-1.03 4.17,-1.82 5.79,-2.88 1.57,-1.03 3.96,-1.99 5.41,-3.11 20.05,-15.43 20.12,-39.72 27.36,-65.23 20.31,-71.61 23.66,-40.42 81.57,-79.24l345.15 -298.24c59.65,-71.45 66.22,-95.73 159.31,-162.49 65.97,-47.32 130.75,-79.5 194.15,-127.78 81.75,-62.25 71.68,-68.98 184.3,-137.37 123.25,-74.85 285.95,-163.09 446.13,-197.14l19.45 -69.23c-125.55,-52.07 -333.25,-161.65 -453.85,-210.48l-379.71 -170.63c-25.15,-11.18 -46,-23.51 -73.37,-36.69 -178.71,-86.07 -158.5,-21.08 -219.94,-220.33 -35.15,-114 -84.34,-195.54 -153.12,-287.15 -93.69,-124.79 -212.51,-230.68 -342.74,-317.66 -54.85,-36.62 -242.38,-136.28 -271.89,-168.38 -31.02,-33.75 -21.59,-77.44 -59.63,-135.21l-11.81 -15.05c-0.88,-1.08 -2.82,-3.28 -4.39,-4.76l-19.43 92.76c-133.87,-3.26 -122.92,-45.55 -223.89,-75.74 -147.5,-44.1 -38.26,4.23 -216.14,-71.55 -91.97,-39.19 -144.39,-29.72 -242.81,-54.13 -49.15,-12.18 -62.61,-26.79 -99.49,-44.11 -114.06,-53.57 -527.74,-72.89 -652.11,-41.94 -81.24,20.21 -132.55,61.62 -171.79,116.09 -46.12,64.01 -59.42,129.45 -119.69,171.61z"/>
   <path class="fil0" d="M10323.39 14721.82l-19.45 69.23c-160.18,34.05 -322.88,122.29 -446.13,197.14 -112.62,68.39 -102.55,75.12 -184.3,137.37 -63.4,48.28 -128.18,80.46 -194.15,127.78 -93.09,66.76 -99.66,91.04 -159.31,162.49l-345.15 298.24c-57.91,38.82 -61.26,7.63 -81.57,79.24 -7.24,25.51 -7.31,49.8 -27.36,65.23 -1.45,1.12 -3.84,2.08 -5.41,3.11 -1.62,1.06 -4.12,1.85 -5.79,2.88l-27.59 23.31c5.78,53.6 -3.97,117.54 -36.32,149.99 -30.03,30.1 -45.73,26.53 -37.37,148.68 7.01,102.39 88.61,201.66 143.56,236.23 39.96,11.3 183.98,17.81 237.07,17.81 0,43.03 2.1,82.38 -4.55,122.45 -18.29,110.1 -51.46,235.57 31.82,324.42 44.06,47.02 89.83,84.09 176.11,87.03 33.99,1.16 85.96,-8.99 121.87,-13.91 34.28,-4.7 94.78,-11.98 123.49,-11.98 -16.36,196.57 -78.81,390.61 95.71,471.55 76.83,35.64 157.14,39.66 248.2,16.29l240.29 -72.98c33.28,400.01 98.11,393.18 439.34,337.75 36.68,-5.96 42.38,-6.89 69.02,-24.11 113.74,-73.53 250.27,-147.92 312.45,-245.9 36.88,-118.17 63.95,-134.89 150.25,-197.28 123.76,-89.47 505.11,-358.23 592.84,-474.15 99.46,-131.41 191.85,-300.99 228.61,-473.92 23.24,-109.36 7.5,-230.73 10.69,-345.16 3.55,-127.22 51.92,-127.95 228.18,-107.29 -54.73,-188.55 -70.94,-169.61 -99.34,-249.36 -73.62,-206.73 30.7,-996.1 62.87,-1262.33 25.22,-208.8 243.32,-572.28 291.49,-742.85 -125.13,81.3 -202.61,468.85 -282.01,556.59 -58.19,64.31 -463.78,250.19 -547.75,298.92 -107.97,62.64 -453.15,274.8 -560.09,286.63 -168.15,18.58 -200.7,-87.42 -559.92,-9.64 -153.8,33.3 -106.4,10.5 -180.3,10.5z"/>
   <path class="fil0" d="M7102.76 9616.41c-1.17,39.7 -4.57,58.38 -9.4,92.85 -4.75,33.9 -13.99,53.07 -16.64,84.95l-192.14 -87.26c-145.54,-62.24 -317.04,-14.56 -359.64,136.62 -16.87,59.87 -32.42,176.82 -32.42,255.45 -122.5,0 -303.84,-162.8 -463.78,-15.05 -134.7,124.42 -78.98,478.15 -69.62,497.65 -34.99,0 -59.5,-8.49 -143.94,-8.49 -148.48,-0.01 -231.94,17.39 -266.43,207.72 -30.79,169.91 20.12,269.41 64.3,392.36 12.67,35.26 32.62,82.74 41.27,119.39 18.21,13.19 31.45,31.28 49.39,52.14 58.64,68.19 53.55,12.17 142.2,171.54 48.18,86.62 87.89,190.33 131.49,282.9 46.52,98.8 86.91,184.64 142.13,273.23 70.66,113.38 298.31,349.7 405.11,432.8 40.83,31.77 77.9,52.17 127.46,75.72 150.93,71.74 174.22,19.6 170.95,244.61 -2.42,166.39 -81.75,179.21 -174.12,249.07 -38.24,28.92 -27.57,80.68 -41.34,173.86 60.27,-42.16 73.57,-107.6 119.69,-171.61 39.24,-54.47 90.55,-95.88 171.79,-116.09 124.37,-30.95 538.05,-11.63 652.11,41.94 36.88,17.32 50.34,31.93 99.49,44.11 98.42,24.41 150.84,14.94 242.81,54.13 177.88,75.78 68.64,27.45 216.14,71.55 100.97,30.19 90.02,72.48 223.89,75.74l19.43 -92.76c15.66,-151.92 -194.66,-632.76 -193.2,-889.49 0.34,-59.65 4.22,-51.17 36.68,-82.07 81.06,-77.19 151.18,-179.72 201.23,-281.38 108.73,-220.89 87.13,-389.24 92.61,-635.52 2.02,-90.79 36.77,-107.14 83.11,-153.95l321.24 -406.9c43.14,-57.82 190.7,-236.02 214.11,-280.52 -74,58.45 -101.69,115.04 -165.3,176.81 -35.95,34.91 -123.13,136.6 -151.22,187.36 -41.8,75.55 -92.37,130.14 -143.08,195.75 -55.99,72.43 -67.98,137.7 -184.95,147.03 -131.15,-488.87 -66.44,-330.05 -291.4,-775.39 -54.4,-107.7 -118.98,-257.78 -180,-353.02 -54.42,-84.95 -178.4,-223.78 -190.81,-345.94 50.88,-19.13 78.1,-31.87 96.94,-84.95 -83.29,40.03 -108.42,75.77 -215.92,29.72 -115.57,-49.51 -200.94,-175.21 -422.65,-107.74 -90.71,27.61 -117.79,50.69 -157.57,121.13z"/>
   <path class="fil0" d="M10749.82 8764c-17.55,58.47 -24.27,106.47 -49.12,158.45 -80.7,168.75 -5.93,155.35 -183.14,460.11 -66.53,114.4 -313.43,421.22 -358.88,504.79l144.17 8.14c52.3,0.52 88.69,8.95 152.06,8.8 112.59,-0.25 198.48,-8.54 304.81,-8.48 104.52,0.07 209.06,-0.37 313.56,-0.29 143.12,0.12 143.34,30.14 217.59,95.68 17.57,15.52 73.51,45.79 95.34,57.06l201.61 111.66c127.4,77.4 207.01,84.04 391.05,83.08 156.35,-0.81 120.85,-18.5 243.9,76.15l-8.44 -75.15c316.27,-18.97 834.01,-141.27 1099.85,-240.42 222.77,-83.09 493.47,-196.8 566.01,-441.63 17.27,-58.29 45.63,-227.02 46.13,-292.67l-117.02 -60.83c-38.24,-24.61 -73.92,-54.68 -111.64,-74.64 31.92,-60.31 60.42,-115.29 88.24,-182.69 24.12,-58.44 77,-118.98 52.16,-211.69 -30.45,-113.65 -216.44,-210.41 -309.73,-232.15 0.79,-35.56 13.47,-94.54 25.08,-118.85 21.89,-45.83 35.15,-36.35 51.6,-100.8 92.65,-363.12 -370.55,-356.95 -474.62,-406.88 0,-40.52 -2.19,-87.33 -0.04,-127.05 3.9,-71.89 39.69,-183.92 -107.22,-265.22 -65.79,-36.41 -120.89,-46.45 -207.27,-55.2 -85.32,-8.64 -160.47,-9.73 -252.73,-9.73 -3.88,-14.52 -74.51,-141.55 -95.94,-160.87 19.03,77.33 60.54,104.48 65.46,194.54 -43.81,14.44 -96.94,34.81 -145.03,53.24 -55.67,21.35 -79.96,40.21 -125.84,68.89 -229.67,143.62 -372.53,64.42 -597.86,173l-259.21 121.64c-162.24,81.55 -326.99,226.69 -414.11,356.24 -98.6,146.62 -127.75,229.39 -186.75,397.38 -8.43,24.01 -15.5,43.23 -24.54,68.6l-29.49 67.79z"/>
   <path class="fil0" d="M12834.06 13257.1c-46.56,10.81 -85.32,22.78 -122.16,47.16 -43.7,28.91 -64.23,41.32 -100.13,77.67 -68.18,69.04 -112.77,106.02 -158.31,196.89 -48.17,170.57 -266.27,534.05 -291.49,742.85 -32.17,266.23 -136.49,1055.6 -62.87,1262.33 28.4,79.75 44.61,60.81 99.34,249.36 48.88,38.54 120.99,103.23 174.98,136.43 104.13,64.01 142,14.48 232.04,-20.3 32.48,-48.52 86.77,-94.78 152.4,-110.07 19.14,28.59 38.31,39.94 61.08,74.39 66.87,101.17 100.84,166.96 252.69,179.34 48.95,3.99 91.94,-4.48 125.74,-17.42 68.91,-26.4 103.07,-90.95 137.76,-150.1 30.74,-52.42 22.3,-41.57 74.66,-69.28 60.04,40.2 101.5,131.84 141.39,171.89 20.43,20.52 68.91,50.9 101.72,59.15 111.79,28.08 195.77,-10.36 272.06,-79.94 1.29,-1.18 3.23,-2.77 4.51,-3.95l51.24 -58.83c27.21,-40.06 102.24,-165.16 106.42,-215.32 154.56,36.01 127.79,129.07 271.01,127.72 119.45,-1.12 191.19,-76.78 234.27,-170.05 13.47,-48.79 33.1,-84.03 47.18,-133.39 39.01,-136.81 25.88,-349.02 29.38,-493.14 13.23,-545.48 196.16,-996.96 -173.06,-1467.18 -62.44,-79.52 -120.13,-103.35 -54.43,-227.72 -22.37,-20.63 -144.2,-84.31 -180.31,-104.73 -354.44,-200.49 -638.23,-515.89 -934.13,-784.63 -59.68,-54.2 -107.64,-119.12 -157.77,-124.46l-145.04 856.45 -190.17 48.88z"/>
  </g>
 </g>
</svg>
